<mxfile host="app.diagrams.net" modified="2024-07-19T07:59:15.835Z" agent="Mozilla/5.0 (Windows NT 10.0; Win64; x64) AppleWebKit/537.36 (KHTML, like Gecko) Chrome/126.0.0.0 Safari/537.36 Edg/126.0.0.0" etag="5M-GeAsF_HNKqOU9O5L1" version="24.7.1" type="device">
  <diagram name="Page-1" id="tUH4BYLjX6x0_Tki6ThT">
    <mxGraphModel dx="956" dy="624" grid="1" gridSize="10" guides="1" tooltips="1" connect="1" arrows="1" fold="1" page="1" pageScale="1" pageWidth="827" pageHeight="1169" math="0" shadow="0">
      <root>
        <mxCell id="0" />
        <mxCell id="1" parent="0" />
        <mxCell id="TAOARv7muUPbnxXF1KtX-10" style="edgeStyle=orthogonalEdgeStyle;rounded=0;orthogonalLoop=1;jettySize=auto;html=1;" edge="1" parent="1" source="TAOARv7muUPbnxXF1KtX-1" target="TAOARv7muUPbnxXF1KtX-4">
          <mxGeometry relative="1" as="geometry" />
        </mxCell>
        <mxCell id="TAOARv7muUPbnxXF1KtX-1" value="START" style="ellipse;whiteSpace=wrap;html=1;" vertex="1" parent="1">
          <mxGeometry x="330" y="80" width="120" height="80" as="geometry" />
        </mxCell>
        <mxCell id="TAOARv7muUPbnxXF1KtX-9" style="edgeStyle=orthogonalEdgeStyle;rounded=0;orthogonalLoop=1;jettySize=auto;html=1;" edge="1" parent="1" source="TAOARv7muUPbnxXF1KtX-4" target="TAOARv7muUPbnxXF1KtX-6">
          <mxGeometry relative="1" as="geometry" />
        </mxCell>
        <mxCell id="TAOARv7muUPbnxXF1KtX-4" value="Input numbers as X, Y" style="shape=parallelogram;perimeter=parallelogramPerimeter;whiteSpace=wrap;html=1;fixedSize=1;" vertex="1" parent="1">
          <mxGeometry x="260" y="230" width="260" height="60" as="geometry" />
        </mxCell>
        <mxCell id="TAOARv7muUPbnxXF1KtX-7" style="edgeStyle=orthogonalEdgeStyle;rounded=0;orthogonalLoop=1;jettySize=auto;html=1;entryX=0.539;entryY=-0.052;entryDx=0;entryDy=0;entryPerimeter=0;" edge="1" parent="1" source="TAOARv7muUPbnxXF1KtX-6" target="TAOARv7muUPbnxXF1KtX-11">
          <mxGeometry relative="1" as="geometry">
            <mxPoint x="385" y="530" as="targetPoint" />
          </mxGeometry>
        </mxCell>
        <mxCell id="TAOARv7muUPbnxXF1KtX-8" style="edgeStyle=orthogonalEdgeStyle;rounded=0;orthogonalLoop=1;jettySize=auto;html=1;entryX=0;entryY=0.5;entryDx=0;entryDy=0;" edge="1" parent="1" source="TAOARv7muUPbnxXF1KtX-6" target="TAOARv7muUPbnxXF1KtX-13">
          <mxGeometry relative="1" as="geometry">
            <mxPoint x="540" y="395" as="targetPoint" />
          </mxGeometry>
        </mxCell>
        <mxCell id="TAOARv7muUPbnxXF1KtX-6" value="if&lt;div&gt;X&amp;gt;Y&lt;/div&gt;&lt;div&gt;?&lt;/div&gt;" style="rhombus;whiteSpace=wrap;html=1;" vertex="1" parent="1">
          <mxGeometry x="340" y="350" width="90" height="90" as="geometry" />
        </mxCell>
        <mxCell id="TAOARv7muUPbnxXF1KtX-11" value="Print &quot;X is Largest &quot;" style="shape=parallelogram;perimeter=parallelogramPerimeter;whiteSpace=wrap;html=1;fixedSize=1;" vertex="1" parent="1">
          <mxGeometry x="250" y="540" width="250" height="50" as="geometry" />
        </mxCell>
        <mxCell id="TAOARv7muUPbnxXF1KtX-13" value="Print &quot;Y is Largest&quot;" style="shape=parallelogram;perimeter=parallelogramPerimeter;whiteSpace=wrap;html=1;fixedSize=1;" vertex="1" parent="1">
          <mxGeometry x="540" y="370" width="240" height="60" as="geometry" />
        </mxCell>
        <mxCell id="TAOARv7muUPbnxXF1KtX-15" value="END" style="ellipse;whiteSpace=wrap;html=1;" vertex="1" parent="1">
          <mxGeometry x="610" y="505" width="120" height="80" as="geometry" />
        </mxCell>
        <mxCell id="TAOARv7muUPbnxXF1KtX-16" style="edgeStyle=orthogonalEdgeStyle;rounded=0;orthogonalLoop=1;jettySize=auto;html=1;entryX=-0.01;entryY=0.689;entryDx=0;entryDy=0;entryPerimeter=0;" edge="1" parent="1" source="TAOARv7muUPbnxXF1KtX-11" target="TAOARv7muUPbnxXF1KtX-15">
          <mxGeometry relative="1" as="geometry" />
        </mxCell>
        <mxCell id="TAOARv7muUPbnxXF1KtX-17" style="edgeStyle=orthogonalEdgeStyle;rounded=0;orthogonalLoop=1;jettySize=auto;html=1;entryX=0.421;entryY=0.017;entryDx=0;entryDy=0;entryPerimeter=0;" edge="1" parent="1" source="TAOARv7muUPbnxXF1KtX-13" target="TAOARv7muUPbnxXF1KtX-15">
          <mxGeometry relative="1" as="geometry" />
        </mxCell>
        <mxCell id="TAOARv7muUPbnxXF1KtX-18" value="Yes" style="text;html=1;align=center;verticalAlign=middle;resizable=0;points=[];autosize=1;strokeColor=none;fillColor=none;" vertex="1" parent="1">
          <mxGeometry x="380" y="458" width="40" height="30" as="geometry" />
        </mxCell>
        <mxCell id="TAOARv7muUPbnxXF1KtX-19" value="No" style="text;html=1;align=center;verticalAlign=middle;resizable=0;points=[];autosize=1;strokeColor=none;fillColor=none;" vertex="1" parent="1">
          <mxGeometry x="460" y="370" width="40" height="30" as="geometry" />
        </mxCell>
      </root>
    </mxGraphModel>
  </diagram>
</mxfile>
